<svg xmlns="http://www.w3.org/2000/svg" width="815.1971435546875" height="847.110595703125" viewBox="-313.1335754394531 -306.0030212402344 815.1971435546875 847.110595703125"><title>Neo4j Graph Visualization</title><desc>Created using Neo4j (http://www.neo4j.com/)</desc><g class="layer relationships"><g class="relationship" transform="translate(114.34532728256376 273.0324993644274) rotate(429.11160116181185)"><path class="outline" fill="#A5ABB6" stroke="none" d="M 25 0.5 L 30.088825653996615 0.5 L 30.088825653996615 -0.5 L 25 -0.5 Z M 67.64741940399662 0.5 L 72.73624505799323 0.5 L 72.73624505799323 3.5 L 79.73624505799323 0 L 72.73624505799323 -3.5 L 72.73624505799323 -0.5 L 67.64741940399662 -0.5 Z"/><text text-anchor="middle" pointer-events="none" font-size="8px" fill="#000000" x="48.868122528996615" y="3" font-family="sans-serif">VIEWED</text></g><g class="relationship" transform="translate(364.0141817535212 364.42412222938395) rotate(481.77908200929426)"><path class="outline" fill="#A5ABB6" stroke="none" d="M 25 0.5 L 30.58326802921269 0.5 L 30.58326802921269 -0.5 L 25 -0.5 Z M 68.14186177921269 0.5 L 73.72512980842538 0.5 L 73.72512980842538 3.5 L 80.72512980842538 0 L 73.72512980842538 -3.5 L 73.72512980842538 -0.5 L 68.14186177921269 -0.5 Z"/><text text-anchor="middle" pointer-events="none" font-size="8px" fill="#000000" x="49.36256490421269" y="3" transform="rotate(180 49.36256490421269 0)" font-family="sans-serif">VIEWED</text></g><g class="relationship" transform="translate(272.550599288374 148.8842331193306) rotate(213.8220935904685)"><path class="outline" fill="#A5ABB6" stroke="none" d="M 25 0.5 L 30.205645307286396 0.5 L 30.205645307286396 -0.5 L 25 -0.5 Z M 67.7642390572864 0.5 L 72.96988436457279 0.5 L 72.96988436457279 3.5 L 79.96988436457279 0 L 72.96988436457279 -3.5 L 72.96988436457279 -0.5 L 67.7642390572864 -0.5 Z"/><text text-anchor="middle" pointer-events="none" font-size="8px" fill="#000000" x="48.984942182286396" y="3" transform="rotate(180 48.984942182286396 0)" font-family="sans-serif">VIEWED</text></g><g class="relationship" transform="translate(473.063530541517 111.79362398124931) rotate(451.4210645523527)"><path class="outline" fill="#A5ABB6" stroke="none" d="M 25 0.5 L 29.466565321543513 0.5 L 29.466565321543513 -0.5 L 25 -0.5 Z M 67.02515907154351 0.5 L 71.49172439308703 0.5 L 71.49172439308703 3.5 L 78.49172439308703 0 L 71.49172439308703 -3.5 L 71.49172439308703 -0.5 L 67.02515907154351 -0.5 Z"/><text text-anchor="middle" pointer-events="none" font-size="8px" fill="#000000" x="48.24586219654351" y="3" transform="rotate(180 48.24586219654351 0)" font-family="sans-serif">VIEWED</text></g><g class="relationship" transform="translate(373.9888266830025 -31.95920108994097) rotate(316.4571793015649)"><path class="outline" fill="#A5ABB6" stroke="none" d="M 21.40063509461097,12.933012701892217 L 21.90063509461097,12.06698729810778 A 56.593459958706596 56.593459958706596 0 0 0 30.226668295021145,16.008337297529025 L 29.873788354591372,16.944005907477163 A 57.593459958706596 57.593459958706596 0 0 1 21.40063509461097,12.933012701892217 Z M 67.06309386384245,18.12424158179593 L 66.77025282248167,17.168080442398008 A 56.593459958706596 56.593459958706596 0 0 0 75.32944428040396,13.762598059695087 L 73.99720133794503,11.07463810049399 L 81.82339134228302,11.102024520491094 L 77.10576820368254,17.346544671963215 L 75.77352526122361,14.65858471276212 A 57.593459958706596 57.593459958706596 0 0 1 67.06309386384245,18.12424158179593"/><text text-anchor="middle" pointer-events="none" font-size="8px" fill="#000000" x="48.38636512182538" y="23.120343629778475" font-family="sans-serif">VIEWED</text></g><g class="relationship" transform="translate(373.9888266830025 -31.95920108994097) rotate(316.4571793015649)"><path class="outline" fill="#A5ABB6" stroke="none" d="M 25 0.5 L 29.8322319594794 0.5 L 29.8322319594794 -0.5 L 25 -0.5 Z M 67.3908257094794 0.5 L 72.2230576689588 0.5 L 72.2230576689588 3.5 L 79.2230576689588 0 L 72.2230576689588 -3.5 L 72.2230576689588 -0.5 L 67.3908257094794 -0.5 Z"/><text text-anchor="middle" pointer-events="none" font-size="8px" fill="#000000" x="48.6115288344794" y="3" font-family="sans-serif">VIEWED</text></g><g class="relationship" transform="translate(373.9888266830025 -31.95920108994097) rotate(316.4571793015649)"><path class="outline" fill="#A5ABB6" stroke="none" d="M 21.40063509461097,-12.933012701892217 L 21.90063509461097,-12.06698729810778 A 56.593459958706596 56.593459958706596 0 0 1 30.22666829502115,-16.008337297529025 L 29.873788354591376,-16.944005907477163 A 57.593459958706596 57.593459958706596 0 0 0 21.40063509461097,-12.933012701892217 Z M 67.06309386384243,-18.124241581795935 L 66.77025282248164,-17.168080442398015 A 56.593459958706596 56.593459958706596 0 0 1 75.32944428040396,-13.762598059695087 L 73.99720133794503,-11.07463810049399 L 81.82339134228302,-11.102024520491094 L 77.10576820368254,-17.346544671963215 L 75.77352526122361,-14.65858471276212 A 57.593459958706596 57.593459958706596 0 0 0 67.06309386384243,-18.124241581795935"/><text text-anchor="middle" pointer-events="none" font-size="8px" fill="#000000" x="48.38636512182537" y="-17.120343629778475" font-family="sans-serif">VIEWED</text></g><g class="relationship" transform="translate(246.07186211810182 -161.93578362917088) rotate(284.2782569838001)"><path class="outline" fill="#A5ABB6" stroke="none" d="M 21.40063509461097,12.933012701892217 L 21.90063509461097,12.06698729810778 A 56.776376728163896 56.776376728163896 0 0 0 30.3120848856439,16.043104443555272 L 29.960235406613307,16.979161035918096 A 57.776376728163896 57.776376728163896 0 0 1 21.40063509461097,12.933012701892217 Z M 67.15287704211562,18.157617161112213 L 66.86099211373447,17.201163718134502 A 56.776376728163896 56.776376728163896 0 0 0 75.50728485549557,13.765524481375493 L 74.17476966959997,11.077699472310057 L 82.00096240763085,11.104293215796666 L 77.28397177002303,17.34929116012941 L 75.95145658412743,14.661466151063973 A 57.776376728163896 57.776376728163896 0 0 1 67.15287704211562,18.157617161112213"/><text text-anchor="middle" pointer-events="none" font-size="8px" fill="#000000" x="48.47492056561489" y="23.14484971986515" font-family="sans-serif">VIEWED</text></g><g class="relationship" transform="translate(246.07186211810182 -161.93578362917088) rotate(284.2782569838001)"><path class="outline" fill="#A5ABB6" stroke="none" d="M 25 0.5 L 29.920455199921406 0.5 L 29.920455199921406 -0.5 L 25 -0.5 Z M 67.4790489499214 0.5 L 72.39950414984281 0.5 L 72.39950414984281 3.5 L 79.39950414984281 0 L 72.39950414984281 -3.5 L 72.39950414984281 -0.5 L 67.4790489499214 -0.5 Z"/><text text-anchor="middle" pointer-events="none" font-size="8px" fill="#000000" x="48.699752074921406" y="3" font-family="sans-serif">VIEWED</text></g><g class="relationship" transform="translate(246.07186211810182 -161.93578362917088) rotate(284.2782569838001)"><path class="outline" fill="#A5ABB6" stroke="none" d="M 21.40063509461097,-12.933012701892217 L 21.90063509461097,-12.06698729810778 A 56.776376728163896 56.776376728163896 0 0 1 30.31208488564388,-16.043104443555265 L 29.96023540661329,-16.97916103591809 A 57.776376728163896 57.776376728163896 0 0 0 21.40063509461097,-12.933012701892217 Z M 67.15287704211559,-18.15761716111222 L 66.86099211373444,-17.20116371813451 A 56.776376728163896 56.776376728163896 0 0 1 75.50728485549557,-13.765524481375493 L 74.17476966959997,-11.077699472310057 L 82.00096240763085,-11.104293215796666 L 77.28397177002303,-17.34929116012941 L 75.95145658412743,-14.661466151063973 A 57.776376728163896 57.776376728163896 0 0 0 67.15287704211559,-18.15761716111222"/><text text-anchor="middle" pointer-events="none" font-size="8px" fill="#000000" x="48.47492056561486" y="-17.14484971986515" font-family="sans-serif">VIEWED</text></g><g class="relationship" transform="translate(67.94034859529415 -277.0030186568588) rotate(538.7064509785375)"><path class="outline" fill="#A5ABB6" stroke="none" d="M 25 0.5 L 30.52280773013912 0.5 L 30.52280773013912 -0.5 L 25 -0.5 Z M 68.08140148013912 0.5 L 73.60420921027824 0.5 L 73.60420921027824 3.5 L 80.60420921027824 0 L 73.60420921027824 -3.5 L 73.60420921027824 -0.5 L 68.08140148013912 -0.5 Z"/><text text-anchor="middle" pointer-events="none" font-size="8px" fill="#000000" x="49.30210460513912" y="3" transform="rotate(180 49.30210460513912 0)" font-family="sans-serif">VIEWED</text></g><g class="relationship" transform="translate(-271.9909106992439 -40.22747553653821) rotate(300.16669109993404)"><path class="outline" fill="#A5ABB6" stroke="none" d="M 21.40063509461097,12.933012701892217 L 21.90063509461097,12.06698729810778 A 59.15076602401924 59.15076602401924 0 0 0 31.424017623673407,16.48919525614715 L 31.085019469789742,17.429982294569484 A 60.15076602401924 60.15076602401924 0 0 1 21.40063509461097,12.933012701892217 Z M 68.31797459906008,18.585731898764145 L 68.03797888818727,17.625730647779115 A 59.15076602401924 59.15076602401924 0 0 0 77.81730222797626,13.80269873124263 L 76.4813287879708,11.116590958348926 L 84.30754927139581,11.133112000045507 L 79.59860014798355,17.38417576176757 L 78.26262670797809,14.698067988873865 A 60.15076602401924 60.15076602401924 0 0 1 68.31797459906008,18.585731898764145"/><text text-anchor="middle" pointer-events="none" font-size="8px" fill="#000000" x="49.625287782303204" y="23.462969912093577" font-family="sans-serif">VIEWED</text></g><g class="relationship" transform="translate(-271.9909106992439 -40.22747553653821) rotate(300.16669109993404)"><path class="outline" fill="#A5ABB6" stroke="none" d="M 25 0.5 L 31.066593481088347 0.5 L 31.066593481088347 -0.5 L 25 -0.5 Z M 68.62518723108835 0.5 L 74.6917807121767 0.5 L 74.6917807121767 3.5 L 81.6917807121767 0 L 74.6917807121767 -3.5 L 74.6917807121767 -0.5 L 68.62518723108835 -0.5 Z"/><text text-anchor="middle" pointer-events="none" font-size="8px" fill="#000000" x="49.84589035608835" y="3" font-family="sans-serif">VIEWED</text></g><g class="relationship" transform="translate(-271.9909106992439 -40.22747553653821) rotate(300.16669109993404)"><path class="outline" fill="#A5ABB6" stroke="none" d="M 21.40063509461097,-12.933012701892217 L 21.90063509461097,-12.06698729810778 A 59.15076602401924 59.15076602401924 0 0 1 31.4240176236734,-16.48919525614715 L 31.085019469789735,-17.429982294569484 A 60.15076602401924 60.15076602401924 0 0 0 21.40063509461097,-12.933012701892217 Z M 68.31797459906008,-18.585731898764145 L 68.03797888818727,-17.625730647779115 A 59.15076602401924 59.15076602401924 0 0 1 77.81730222797626,-13.80269873124263 L 76.4813287879708,-11.116590958348926 L 84.30754927139581,-11.133112000045507 L 79.59860014798355,-17.38417576176757 L 78.26262670797809,-14.698067988873865 A 60.15076602401924 60.15076602401924 0 0 0 68.31797459906008,-18.585731898764145"/><text text-anchor="middle" pointer-events="none" font-size="8px" fill="#000000" x="49.625287782303204" y="-17.462969912093577" font-family="sans-serif">VIEWED</text></g><g class="relationship" transform="translate(92.12833952210511 -61.50550435656835) rotate(191.91630075971312)"><path class="outline" fill="#A5ABB6" stroke="none" d="M 25 0.5 L 30.15242679768177 0.5 L 30.15242679768177 -0.5 L 25 -0.5 Z M 67.71102054768177 0.5 L 72.86344734536354 0.5 L 72.86344734536354 3.5 L 79.86344734536354 0 L 72.86344734536354 -3.5 L 72.86344734536354 -0.5 L 67.71102054768177 -0.5 Z"/><text text-anchor="middle" pointer-events="none" font-size="8px" fill="#000000" x="48.93172367268177" y="3" transform="rotate(180 48.93172367268177 0)" font-family="sans-serif">VIEWED</text></g><g class="relationship" transform="translate(-50.696886299168 106.68922087570684) rotate(194.89949839122733)"><path class="outline" fill="#A5ABB6" stroke="none" d="M 21.40063509461097,12.933012701892217 L 21.90063509461097,12.06698729810778 A 54.050333050628225 54.050333050628225 0 0 0 29.04307066729712,15.518502439911977 L 28.675214822005582,16.44838526967326 A 55.050333050628225 55.050333050628225 0 0 1 21.40063509461097,12.933012701892217 Z M 65.8142716680772,17.653815208222902 L 65.50748932703993,16.702035509328404 A 54.050333050628225 54.050333050628225 0 0 0 72.85870932825324,13.720943900900874 L 71.53034150750861,11.031066778649718 L 79.35648391696338,11.069731839538594 L 74.62986642257943,17.307446730569083 L 73.3014986018348,14.617569608317925 A 55.050333050628225 55.050333050628225 0 0 1 65.8142716680772,17.653815208222902"/><text text-anchor="middle" pointer-events="none" font-size="8px" fill="#000000" x="47.15618221564388" y="22.77964795454394" transform="rotate(180 47.15618221564388 19.77964795454394)" font-family="sans-serif">VIEWED</text></g><g class="relationship" transform="translate(-50.696886299168 106.68922087570684) rotate(194.89949839122733)"><path class="outline" fill="#A5ABB6" stroke="none" d="M 25 0.5 L 28.606766426194845 0.5 L 28.606766426194845 -0.5 L 25 -0.5 Z M 66.16536017619484 0.5 L 69.77212660238969 0.5 L 69.77212660238969 3.5 L 76.77212660238969 0 L 69.77212660238969 -3.5 L 69.77212660238969 -0.5 L 66.16536017619484 -0.5 Z"/><text text-anchor="middle" pointer-events="none" font-size="8px" fill="#000000" x="47.386063301194845" y="3" transform="rotate(180 47.386063301194845 0)" font-family="sans-serif">VIEWED</text></g><g class="relationship" transform="translate(-50.696886299168 106.68922087570684) rotate(194.89949839122733)"><path class="outline" fill="#A5ABB6" stroke="none" d="M 21.40063509461097,-12.933012701892217 L 21.90063509461097,-12.06698729810778 A 54.050333050628225 54.050333050628225 0 0 1 29.0430706672971,-15.51850243991197 L 28.675214822005564,-16.448385269673253 A 55.050333050628225 55.050333050628225 0 0 0 21.40063509461097,-12.933012701892217 Z M 65.81427166807717,-17.65381520822291 L 65.50748932703993,-16.70203550932841 A 54.050333050628225 54.050333050628225 0 0 1 72.85870932825324,-13.720943900900874 L 71.53034150750861,-11.031066778649718 L 79.35648391696338,-11.069731839538594 L 74.62986642257943,-17.307446730569083 L 73.3014986018348,-14.617569608317925 A 55.050333050628225 55.050333050628225 0 0 0 65.81427166807717,-17.65381520822291"/><text text-anchor="middle" pointer-events="none" font-size="8px" fill="#000000" x="47.15618221564387" y="-16.77964795454394" transform="rotate(180 47.15618221564387 -19.77964795454394)" font-family="sans-serif">VIEWED</text></g><g class="relationship" transform="translate(-284.1335706195322 198.47887294582415) rotate(399.95951037475277)"><path class="outline" fill="#A5ABB6" stroke="none" d="M 25 0.5 L 29.63767975470811 0.5 L 29.63767975470811 -0.5 L 25 -0.5 Z M 67.1962735047081 0.5 L 71.83395325941622 0.5 L 71.83395325941622 3.5 L 78.83395325941622 0 L 71.83395325941622 -3.5 L 71.83395325941622 -0.5 L 67.1962735047081 -0.5 Z"/><text text-anchor="middle" pointer-events="none" font-size="8px" fill="#000000" x="48.41697662970811" y="3" font-family="sans-serif">VIEWED</text></g><g class="relationship" transform="translate(-46.450219402224235 325.02478608340584) rotate(484.30956196340014)"><path class="outline" fill="#A5ABB6" stroke="none" d="M 25 0.5 L 30.689265183180595 0.5 L 30.689265183180595 -0.5 L 25 -0.5 Z M 68.2478589331806 0.5 L 73.93712411636119 0.5 L 73.93712411636119 3.5 L 80.93712411636119 0 L 73.93712411636119 -3.5 L 73.93712411636119 -0.5 L 68.2478589331806 -0.5 Z"/><text text-anchor="middle" pointer-events="none" font-size="8px" fill="#000000" x="49.468562058180595" y="3" transform="rotate(180 49.468562058180595 0)" font-family="sans-serif">VIEWED</text></g></g><g class="layer nodes"><g class="node" transform="translate(151.6889135151493,370.8851313992248)"><circle class="outline" cx="0" cy="0" r="25" fill="#68BDF6" stroke="#5CA8DB" stroke-width="2px"/><text text-anchor="middle" pointer-events="none" y="5" font-size="10px" fill="#FFFFFF" font-family="sans-serif"> 1402241…</text></g><g class="node" transform="translate(114.34532728256376,273.0324993644274)"><circle class="outline" cx="0" cy="0" r="25" fill="#FB95AF" stroke="#E0849B" stroke-width="2px"/><text text-anchor="middle" pointer-events="none" y="5" font-size="10px" fill="#FFFFFF" font-family="sans-serif"> 04daa9e…</text></g><g class="node" transform="translate(308.3345205543508,454.299471473512)"><circle class="outline" cx="0" cy="0" r="25" fill="#68BDF6" stroke="#5CA8DB" stroke-width="2px"/><text text-anchor="middle" pointer-events="none" y="5" font-size="10px" fill="#FFFFFF" font-family="sans-serif"> 1402221…</text></g><g class="node" transform="translate(364.0141817535212,364.42412222938395)"><circle class="outline" cx="0" cy="0" r="25" fill="#FB95AF" stroke="#E0849B" stroke-width="2px"/><text text-anchor="middle" pointer-events="none" y="5" font-size="10px" fill="#FFFFFF" font-family="sans-serif"> ade7e1f…</text></g><g class="node" transform="translate(185.34477930562264,90.45631526623787)"><circle class="outline" cx="0" cy="0" r="25" fill="#68BDF6" stroke="#5CA8DB" stroke-width="2px"/><text text-anchor="middle" pointer-events="none" y="5" font-size="10px" fill="#FFFFFF" font-family="sans-serif"> 1401070…</text></g><g class="node" transform="translate(272.550599288374,148.8842331193306)"><circle class="outline" cx="0" cy="0" r="25" fill="#FB95AF" stroke="#E0849B" stroke-width="2px"/><text text-anchor="middle" pointer-events="none" y="5" font-size="10px" fill="#FFFFFF" font-family="sans-serif"> f1396eb…</text></g><g class="node" transform="translate(470.49696552617627,215.25351844222735)"><circle class="outline" cx="0" cy="0" r="25" fill="#68BDF6" stroke="#5CA8DB" stroke-width="2px"/><text text-anchor="middle" pointer-events="none" y="5" font-size="10px" fill="#FFFFFF" font-family="sans-serif"> 1303251…</text></g><g class="node" transform="translate(473.063530541517,111.79362398124931)"><circle class="outline" cx="0" cy="0" r="25" fill="#FB95AF" stroke="#E0849B" stroke-width="2px"/><text text-anchor="middle" pointer-events="none" y="5" font-size="10px" fill="#FFFFFF" font-family="sans-serif"> 1d87b7c…</text></g><g class="node" transform="translate(449.5359229061057,-103.75810081775222)"><circle class="outline" cx="0" cy="0" r="25" fill="#68BDF6" stroke="#5CA8DB" stroke-width="2px"/><text text-anchor="middle" pointer-events="none" y="5" font-size="10px" fill="#FFFFFF" font-family="sans-serif"> 1402111…</text></g><g class="node" transform="translate(373.9888266830025,-31.95920108994097)"><circle class="outline" cx="0" cy="0" r="25" fill="#FB95AF" stroke="#E0849B" stroke-width="2px"/><text text-anchor="middle" pointer-events="none" y="5" font-size="10px" fill="#FFFFFF" font-family="sans-serif"> ad0ca47…</text></g><g class="node" transform="translate(271.82004398156147,-263.1103238923184)"><circle class="outline" cx="0" cy="0" r="25" fill="#68BDF6" stroke="#5CA8DB" stroke-width="2px"/><text text-anchor="middle" pointer-events="none" y="5" font-size="10px" fill="#FFFFFF" font-family="sans-serif"> 1402060…</text></g><g class="node" transform="translate(246.07186211810182,-161.93578362917088)"><circle class="outline" cx="0" cy="0" r="25" fill="#FB95AF" stroke="#E0849B" stroke-width="2px"/><text text-anchor="middle" pointer-events="none" y="5" font-size="10px" fill="#FFFFFF" font-family="sans-serif"> c08fc48…</text></g><g class="node" transform="translate(-37.636948160714134,-274.61902775461516)"><circle class="outline" cx="0" cy="0" r="25" fill="#68BDF6" stroke="#5CA8DB" stroke-width="2px"/><text text-anchor="middle" pointer-events="none" y="5" font-size="10px" fill="#FFFFFF" font-family="sans-serif"> 1402282…</text></g><g class="node" transform="translate(67.94034859529415,-277.0030186568588)"><circle class="outline" cx="0" cy="0" r="25" fill="#FB95AF" stroke="#E0849B" stroke-width="2px"/><text text-anchor="middle" pointer-events="none" y="5" font-size="10px" fill="#FFFFFF" font-family="sans-serif"> 849bb06…</text></g><g class="node" transform="translate(-218.37643279847276,-132.46967754279413)"><circle class="outline" cx="0" cy="0" r="25" fill="#68BDF6" stroke="#5CA8DB" stroke-width="2px"/><text text-anchor="middle" pointer-events="none" y="5" font-size="10px" fill="#FFFFFF" font-family="sans-serif"> 1307221…</text></g><g class="node" transform="translate(-271.9909106992439,-40.22747553653821)"><circle class="outline" cx="0" cy="0" r="25" fill="#FB95AF" stroke="#E0849B" stroke-width="2px"/><text text-anchor="middle" pointer-events="none" y="5" font-size="10px" fill="#FFFFFF" font-family="sans-serif"> 982a1b1…</text></g><g class="node" transform="translate(-10.47532989613985,-83.15797791192307)"><circle class="outline" cx="0" cy="0" r="25" fill="#68BDF6" stroke="#5CA8DB" stroke-width="2px"/><text text-anchor="middle" pointer-events="none" y="5" font-size="10px" fill="#FFFFFF" font-family="sans-serif"> 1402231…</text></g><g class="node" transform="translate(92.12833952210511,-61.50550435656835)"><circle class="outline" cx="0" cy="0" r="25" fill="#FB95AF" stroke="#E0849B" stroke-width="2px"/><text text-anchor="middle" pointer-events="none" y="5" font-size="10px" fill="#FFFFFF" font-family="sans-serif"> 02fd23b…</text></g><g class="node" transform="translate(-149.04726408757196,80.52113072661399)"><circle class="outline" cx="0" cy="0" r="25" fill="#68BDF6" stroke="#5CA8DB" stroke-width="2px"/><text text-anchor="middle" pointer-events="none" y="5" font-size="10px" fill="#FFFFFF" font-family="sans-serif"> 1402282…</text></g><g class="node" transform="translate(-50.696886299168,106.68922087570684)"><circle class="outline" cx="0" cy="0" r="25" fill="#FB95AF" stroke="#E0849B" stroke-width="2px"/><text text-anchor="middle" pointer-events="none" y="5" font-size="10px" fill="#FFFFFF" font-family="sans-serif"> 52873ed…</text></g><g class="node" transform="translate(-204.5450016957219,265.1658247890336)"><circle class="outline" cx="0" cy="0" r="25" fill="#68BDF6" stroke="#5CA8DB" stroke-width="2px"/><text text-anchor="middle" pointer-events="none" y="5" font-size="10px" fill="#FFFFFF" font-family="sans-serif"> 1311081…</text></g><g class="node" transform="translate(-284.1335706195322,198.47887294582415)"><circle class="outline" cx="0" cy="0" r="25" fill="#FB95AF" stroke="#E0849B" stroke-width="2px"/><text text-anchor="middle" pointer-events="none" y="5" font-size="10px" fill="#FFFFFF" font-family="sans-serif"> a4fdca0…</text></g><g class="node" transform="translate(-106.16315265366592,412.5292995015958)"><circle class="outline" cx="0" cy="0" r="25" fill="#68BDF6" stroke="#5CA8DB" stroke-width="2px"/><text text-anchor="middle" pointer-events="none" y="5" font-size="10px" fill="#FFFFFF" font-family="sans-serif"> 1201110…</text></g><g class="node" transform="translate(-46.450219402224235,325.02478608340584)"><circle class="outline" cx="0" cy="0" r="25" fill="#FB95AF" stroke="#E0849B" stroke-width="2px"/><text text-anchor="middle" pointer-events="none" y="5" font-size="10px" fill="#FFFFFF" font-family="sans-serif"> b417fd6f…</text></g><g class="node" transform="translate(54.36711481622314,512.1075764078894)"><circle class="outline" cx="0" cy="0" r="25" fill="#68BDF6" stroke="#5CA8DB" stroke-width="2px"/><text text-anchor="middle" pointer-events="none" y="5" font-size="10px" fill="#FFFFFF" font-family="sans-serif"> 1006081…</text></g></g></svg>